<svg width="376" height="96" viewBox="0 0 376 96" fill="none" xmlns="http://www.w3.org/2000/svg">
<path d="M38 73H52.3261L55.9348 65.9851H66.9783V55.6705H61.7391L70.7826 38.8217L79.8913 55.4301L74.5435 55.9108L74.8913 66.0944H85.5L89.2174 73H104L76.8696 23H65L38 73Z" fill="#00FED9"/>
<path d="M111.792 66.3091C107.931 62.4938 106 57.1012 106 50.1101V24H119.238V49.6838C119.238 57.2291 122.208 60.9805 128.127 60.9805C134.046 60.9805 136.953 57.2078 136.953 49.6838V24H150V50.0888C150 57.0799 148.069 62.4938 144.208 66.2877C140.347 70.103 134.937 72 127.979 72C121.02 72 115.61 70.103 111.749 66.2877L111.792 66.3091Z" fill="#00FED9"/>
<path d="M152 34.5023V23.5H195V34.5023H180.34V72.5H166.747V34.5023H152Z" fill="#00FED9"/>
<path d="M243 24V72H229.331V53.2911H210.669V72H197V24H210.669V42.0353H229.331V24H243Z" fill="#00FED9"/>
<path d="M283 61.2234V71.5H245V24.5H282.121V34.7766H258.253V42.7128H279.29V52.6489H258.253V61.2447H283V61.2234Z" fill="#00FED9"/>
<path d="M318.049 59.7805C319.995 58.6494 321.551 57.0701 322.675 55.0427C323.799 52.9939 324.383 50.6463 324.383 48C324.383 45.3537 323.821 43.0061 322.675 40.9573C321.529 38.9085 319.995 37.3293 318.049 36.2195C316.104 35.1098 313.921 34.5335 311.5 34.5335C309.079 34.5335 306.918 35.0884 304.951 36.2195C303.005 37.3506 301.449 38.9299 300.325 40.9573C299.179 43.0061 298.617 45.3537 298.617 48C298.617 50.6463 299.179 52.9939 300.325 55.0427C301.449 57.0915 303.005 58.6707 304.951 59.7805C306.896 60.9116 309.079 61.4665 311.5 61.4665C313.921 61.4665 316.082 60.9116 318.049 59.7805ZM297.904 69.3415C293.884 67.2287 290.728 64.3049 288.437 60.5915C286.146 56.8567 285 52.6738 285 48C285 43.3262 286.146 39.122 288.437 35.4085C290.728 31.6738 293.884 28.7713 297.904 26.6585C301.925 24.5457 306.464 23.5 311.5 23.5C316.536 23.5 321.075 24.5457 325.096 26.6585C329.116 28.7713 332.272 31.6951 334.563 35.4085C336.854 39.1433 338 43.3262 338 48C338 52.6738 336.854 56.878 334.563 60.5915C332.272 64.3262 329.116 67.2287 325.096 69.3415C321.075 71.4543 316.536 72.5 311.5 72.5C306.464 72.5 301.925 71.4543 297.904 69.3415Z" fill="#00FED9"/>
</svg>
